<svg width="50" height="50" viewBox="0 0 50 50" fill="none" xmlns="http://www.w3.org/2000/svg">
<path d="M11.6856 33.8703C12.2444 36.4872 13.7521 38.8047 15.918 40.376C18.084 41.9474 20.7549 42.6615 23.416 42.3807C26.0771 42.0999 28.5402 40.844 30.3304 38.8552C32.1207 36.8664 33.1114 34.2853 33.1118 31.6094V27.2597C35.6041 26.8028 37.8577 25.4875 39.4813 23.5421C41.105 21.5968 41.9961 19.1443 42 16.6105V11.0553C41.9985 10.2455 41.6762 9.46917 41.1035 8.89651C40.5308 8.32384 39.7545 8.00147 38.9447 8H34.5006V11.8886H38.1114V16.6105C38.1114 18.4521 37.3798 20.2183 36.0776 21.5206C34.7753 22.8228 33.0091 23.5544 31.1675 23.5544C29.3258 23.5544 27.5596 22.8228 26.2574 21.5206C24.9551 20.2183 24.2235 18.4521 24.2235 16.6105V11.8886H27.8344V8H23.3903C22.5804 8.00147 21.8041 8.32384 21.2315 8.89651C20.6588 9.46917 20.3364 10.2455 20.3349 11.0553V16.6105C20.3388 19.1443 21.23 21.5968 22.8536 23.5421C24.4772 25.4875 26.7308 26.8028 29.2232 27.2597V31.6094C29.2243 33.2697 28.6304 34.8755 27.5493 36.1356C26.4681 37.3957 24.9713 38.2267 23.33 38.478C21.6888 38.7292 20.0119 38.3841 18.6033 37.5051C17.1947 36.6262 16.1476 35.2716 15.652 33.687C17.0734 33.1484 18.2563 32.1206 18.988 30.7882C19.7197 29.4558 19.9524 27.9062 19.6441 26.4176C19.3359 24.9291 18.507 23.5993 17.3063 22.6671C16.1057 21.7348 14.6119 21.2612 13.0935 21.3314C11.575 21.4016 10.1313 22.0109 9.02177 23.0499C7.91222 24.089 7.20952 25.4896 7.03991 27.0002C6.87029 28.5108 7.24488 30.0324 8.09638 31.2916C8.94788 32.5508 10.2205 33.4651 11.6856 33.8703ZM13.391 25.2209C13.8854 25.2209 14.3687 25.3676 14.7798 25.6422C15.1909 25.9169 15.5113 26.3073 15.7005 26.7641C15.8897 27.2209 15.9392 27.7235 15.8428 28.2084C15.7463 28.6934 15.5083 29.1388 15.1586 29.4884C14.809 29.838 14.3636 30.0761 13.8787 30.1725C13.3938 30.269 12.8912 30.2195 12.4344 30.0303C11.9776 29.8411 11.5872 29.5207 11.3125 29.1096C11.0378 28.6985 10.8912 28.2152 10.8912 27.7208C10.8912 27.0578 11.1546 26.4219 11.6234 25.9531C12.0922 25.4843 12.728 25.2209 13.391 25.2209Z" fill="#0F0F0F"/>
</svg>
