<svg width="50" height="50" viewBox="0 0 50 50" fill="none" xmlns="http://www.w3.org/2000/svg">
<path fill-rule="evenodd" clip-rule="evenodd" d="M9.07787 40.2042L5.9662 42L0 31.6668L3.11167 29.871H3.10985C3.5515 29.6192 4.11359 29.7688 4.37093 30.2086L9.41346 38.9449C9.66714 39.3865 9.51566 39.9504 9.07583 40.2041L9.07787 40.2042ZM37.5353 29.537C37.5335 28.9256 37.194 28.3653 36.652 28.0806C35.7486 27.5896 34.6426 27.6681 33.8177 28.2795C33.8068 28.2868 33.7958 28.2923 33.7849 28.2978L25.5065 32.8074C23.9534 33.9663 20.82 33.7454 15.9307 32.1321C15.7573 32.081 15.6113 31.9624 15.5274 31.8036C15.4434 31.643 15.427 31.4569 15.4836 31.2853C15.5401 31.1137 15.6642 30.9714 15.8267 30.8929C15.9891 30.8126 16.1752 30.8035 16.345 30.8655C18.1499 31.5098 20.0206 31.9496 21.9239 32.1777C22.8656 31.6831 23.3948 31.1539 23.4149 30.683C23.4368 30.1647 22.8637 29.5023 21.8454 28.869C18.8651 27.0203 13.204 26.0037 11.3772 26.9892C11.2093 27.0933 9.33134 28.2229 5.94407 30.2688L10.0029 37.2988L10.4866 36.9867V36.9849C10.7713 36.7385 11.1728 36.6728 11.5213 36.8188C11.5724 36.8371 11.6363 36.859 11.7221 36.8827L19.7304 39.0818C19.745 39.0855 19.7596 39.091 19.7724 39.0946V39.0964C21.0097 39.6001 22.415 39.4742 23.5447 38.7588L23.5556 38.7515L35.9109 31.3001H35.909C35.9309 31.2873 35.9528 31.2763 35.9747 31.2654C36.942 30.8219 37.495 30.2069 37.5296 29.5371L37.5353 29.537Z" fill="#0F0F0F"/>
<path fill-rule="evenodd" clip-rule="evenodd" d="M40.2852 8.79584L43.3969 7L49.3631 17.3332L46.2514 19.129H46.2532C45.8116 19.3808 45.2495 19.2312 44.9921 18.7914L39.9496 10.0551C39.6959 9.61346 39.8474 9.04955 40.2872 8.79586L40.2852 8.79584ZM11.8278 19.463C11.8296 20.0744 12.169 20.6347 12.7111 20.9194C13.6145 21.4104 14.7204 21.3319 15.5453 20.7205C15.5563 20.7132 15.5672 20.7077 15.5782 20.7022L23.8566 16.1926C25.4096 15.0337 28.5431 15.2546 33.4324 16.8679C33.6058 16.919 33.7518 17.0376 33.8357 17.1964C33.9197 17.357 33.9361 17.5432 33.8795 17.7147C33.8229 17.8863 33.6988 18.0286 33.5364 18.1071C33.374 18.1874 33.1878 18.1965 33.0181 18.1345C31.2131 17.4902 29.3425 17.0504 27.4392 16.8223C26.4975 17.3169 25.9683 17.8461 25.9482 18.317C25.9263 18.8353 26.4993 19.4977 27.5177 20.131C30.4979 21.9797 36.1591 22.9963 37.9859 22.0108C38.1538 21.9067 40.0317 20.7771 43.419 18.7312L39.3602 11.7012L38.8765 12.0133V12.0151C38.5918 12.2615 38.1903 12.3272 37.8417 12.1812C37.7906 12.1629 37.7268 12.141 37.641 12.1173L29.6326 9.91817C29.618 9.91452 29.6034 9.90905 29.5907 9.9054V9.90357C28.3533 9.39988 26.9481 9.5258 25.8184 10.2412L25.8074 10.2485L13.4522 17.6999H13.454C13.4321 17.7127 13.4102 17.7237 13.3883 17.7346C12.4211 18.1781 11.8681 18.7931 11.8334 19.4629L11.8278 19.463Z" fill="#0F0F0F"/>
</svg>
