<svg width="50" height="50" viewBox="0 0 50 50" fill="none" xmlns="http://www.w3.org/2000/svg">
<path d="M8 13H43V36.3333H8V13ZM25.5 18.8333C27.0471 18.8333 28.5308 19.4479 29.6248 20.5419C30.7188 21.6358 31.3333 23.1196 31.3333 24.6667C31.3333 26.2138 30.7188 27.6975 29.6248 28.7915C28.5308 29.8854 27.0471 30.5 25.5 30.5C23.9529 30.5 22.4692 29.8854 21.3752 28.7915C20.2812 27.6975 19.6667 26.2138 19.6667 24.6667C19.6667 23.1196 20.2812 21.6358 21.3752 20.5419C22.4692 19.4479 23.9529 18.8333 25.5 18.8333ZM15.7778 16.8889C15.7778 17.9203 15.3681 18.9094 14.6387 19.6387C13.9094 20.3681 12.9203 20.7778 11.8889 20.7778V28.5556C12.9203 28.5556 13.9094 28.9653 14.6387 29.6946C15.3681 30.4239 15.7778 31.413 15.7778 32.4444H35.2222C35.2222 31.413 35.6319 30.4239 36.3613 29.6946C37.0906 28.9653 38.0797 28.5556 39.1111 28.5556V20.7778C38.0797 20.7778 37.0906 20.3681 36.3613 19.6387C35.6319 18.9094 35.2222 17.9203 35.2222 16.8889H15.7778Z" fill="#09090B"/>
</svg>
