<svg width="52" height="50" viewBox="0 0 52 50" fill="none" xmlns="http://www.w3.org/2000/svg">
<path d="M43.3779 10.0962V7H7.83002V10.863C7.83002 10.863 0.00592731 23.644 0.00754386 23.6882L0 23.6995L0.0102382 23.7054C0.105076 27.6708 3.99611 30.8624 8.80318 30.8624C13.5585 30.8624 17.407 27.7355 17.5821 23.8283L11.7502 10.8953H23.656V38.1649H15.6212V42H35.5862V38.1654H27.5519V10.8953H39.9007L33.4291 23.5578C33.4291 27.5927 37.3741 30.8624 42.242 30.8624C47.0868 30.8624 51.0123 27.6191 51.0474 23.6079L43.3779 10.0962ZM2.36878 23.5583L9.81514 11.3485L15.3831 23.5578L2.36878 23.5583ZM35.8243 23.5583L41.8487 11.3491L48.8122 23.5583H35.8243Z" fill="#0F0F0F"/>
</svg>
