<svg width="50" height="50" viewBox="0 0 50 50" fill="none" xmlns="http://www.w3.org/2000/svg">
<path d="M20 7C23.4478 7 26.7544 8.36964 29.1924 10.8076C31.6304 13.2456 33 16.5522 33 20C33 23.22 31.82 26.18 29.88 28.46L30.42 29H32L42 39L39 42L29 32V30.42L28.46 29.88C26.1007 31.8929 23.1013 32.9991 20 33C16.5522 33 13.2456 31.6304 10.8076 29.1924C8.36964 26.7544 7 23.4478 7 20C7 16.5522 8.36964 13.2456 10.8076 10.8076C13.2456 8.36964 16.5522 7 20 7ZM20 11C15 11 11 15 11 20C11 25 15 29 20 29C25 29 29 25 29 20C29 15 25 11 20 11Z" fill="#0F0F0F"/>
</svg>
