<svg width="215" height="167" viewBox="0 0 215 167" fill="none" xmlns="http://www.w3.org/2000/svg">
<path d="M156.886 50.1947L214.845 108.154L156.886 166.113L98.9271 108.154L156.886 50.1947Z" fill="#14C6ED"/>
<path d="M41.6042 165.477C41.6042 133.818 67.2685 108.154 98.9271 108.154V165.477H41.6042Z" fill="#71E861"/>
<path d="M115.692 131.947L119.541 139.419L127.546 136.857L124.985 144.863L132.457 148.712L124.985 152.561L127.546 160.566L119.541 158.005L115.692 165.477L111.843 158.005L103.837 160.566L106.399 152.561L98.9271 148.712L106.399 144.863L103.837 136.857L111.843 139.419L115.692 131.947Z" fill="#F95007"/>
<path d="M185.866 0L214.846 50.1947L156.886 50.1947L185.866 0Z" fill="#FED501"/>
<path d="M105.446 80.1615L97.9457 108.154L77.4538 87.662L105.446 80.1615Z" fill="#FED501"/>
<path d="M23.295 118.887L46.5901 142.182L23.295 165.477L0 142.182L23.295 118.887Z" fill="#FF98F1"/>
<path d="M214.846 67.163C214.846 76.5343 207.242 84.1312 197.863 84.1312C188.484 84.1312 180.881 76.5343 180.881 67.163C180.881 57.7917 188.484 50.1947 197.863 50.1947C207.242 50.1947 214.846 57.7917 214.846 67.163Z" fill="#FF98F1"/>
<path d="M214.846 136.815C214.846 152.645 202.014 165.477 186.185 165.477V136.815H214.846Z" fill="#71E861"/>
<path d="M77.4271 93.6585C77.4271 111.853 62.6775 126.603 44.483 126.603C26.2884 126.603 11.5388 111.853 11.5388 93.6585C11.5388 75.4639 26.2884 60.7143 44.483 60.7143C62.6775 60.7143 77.4271 75.4639 77.4271 93.6585Z" fill="#F95007"/>
<path d="M206.61 12.1336L208.501 15.8041L212.434 14.5458L211.176 18.4785L214.846 20.3696L211.176 22.2607L212.434 26.1934L208.501 24.9351L206.61 28.6056L204.719 24.9351L200.786 26.1934L202.045 22.2607L198.374 20.3696L202.045 18.4785L200.786 14.5458L204.719 15.8041L206.61 12.1336Z" fill="#14C6ED"/>
</svg>
