<svg width="19" height="16" viewBox="0 0 19 16" fill="none" xmlns="http://www.w3.org/2000/svg">
<path d="M9 16L4 11H0V5H4L9 0V16ZM14.3779 1.06738C17.0936 2.19869 18.9999 4.87492 19 8C19 11.1253 17.0938 13.8023 14.3779 14.9336L13.6553 13.1992C15.6933 12.3497 17.124 10.3462 17.124 8C17.1239 5.65834 15.6932 3.65128 13.6553 2.80176L14.3779 1.06738ZM12.9336 4.53613C14.2893 5.09953 15.245 6.43747 15.2451 8C15.2451 9.56265 14.2894 10.9014 12.9336 11.4736L12.2119 9.73926C12.8897 9.45316 13.3651 8.78392 13.3652 8.00488C13.3652 7.22138 12.8898 6.55224 12.2119 6.27051L12.9336 4.53613Z" fill="#09090B"/>
</svg>
