<svg width="50" height="50" viewBox="0 0 50 50" fill="none" xmlns="http://www.w3.org/2000/svg">
<path d="M25.5 43C20.8587 43 16.4075 41.1563 13.1256 37.8744C9.84374 34.5925 8 30.1413 8 25.5C8 20.8587 9.84374 16.4075 13.1256 13.1256C16.4075 9.84374 20.8587 8 25.5 8C30.1413 8 34.5925 9.84374 37.8744 13.1256C41.1563 16.4075 43 20.8587 43 25.5C43 30.1413 41.1563 34.5925 37.8744 37.8744C34.5925 41.1563 30.1413 43 25.5 43ZM25.5 39.5C29.213 39.5 32.774 38.025 35.3995 35.3995C38.025 32.774 39.5 29.213 39.5 25.5C39.5 21.787 38.025 18.226 35.3995 15.6005C32.774 12.975 29.213 11.5 25.5 11.5C21.787 11.5 18.226 12.975 15.6005 15.6005C12.975 18.226 11.5 21.787 11.5 25.5C11.5 29.213 12.975 32.774 15.6005 35.3995C18.226 38.025 21.787 39.5 25.5 39.5ZM23.75 26.2175V15H27.25V24.7825L34.1625 31.695L31.695 34.1625L23.75 26.2175Z" fill="#09090B"/>
</svg>
