<svg width="80" height="72" viewBox="0 0 80 72" fill="none" xmlns="http://www.w3.org/2000/svg">
<path d="M79.6027 0.440037L62.7327 32.56C62.7073 32.6063 62.6701 32.6449 62.625 32.6722C62.5798 32.6995 62.5283 32.7144 62.4756 32.7154C62.4228 32.7164 62.3708 32.7035 62.3246 32.678C62.2785 32.6525 62.2398 32.6152 62.2127 32.57L44.8927 0.680037C44.8687 0.634716 44.8568 0.584022 44.8581 0.532789C44.8593 0.481556 44.8736 0.431492 44.8997 0.387371C44.9258 0.34325 44.9627 0.306544 45.007 0.280752C45.0513 0.25496 45.1014 0.240943 45.1527 0.240037L79.3327 3.66606e-05C79.3848 -0.000777626 79.4362 0.0119855 79.4818 0.0370697C79.5275 0.0621539 79.5658 0.0986948 79.5931 0.143095C79.6203 0.187496 79.6355 0.238226 79.6372 0.290292C79.6389 0.342359 79.627 0.393967 79.6027 0.440037Z" fill="#09090B"/>
<path d="M0.0626709 1.25004C0.0193647 1.16909 -0.00217132 1.07827 0.000172833 0.986498C0.00251699 0.894721 0.0286608 0.805127 0.0760431 0.726492C0.123425 0.647858 0.190421 0.582879 0.270468 0.537923C0.350514 0.492967 0.440865 0.469574 0.532671 0.470037H19.7327C20.1778 0.470424 20.6141 0.59514 20.9922 0.830129C21.3703 1.06512 21.6752 1.40104 21.8727 1.80004L48.6327 56.41C48.8318 56.8142 48.9353 57.2596 48.9353 57.712C48.9353 58.1644 48.8318 58.6118 48.6327 59.02C46.746 62.9067 45.0727 66.0534 43.6127 68.46C42.8927 69.65 43.1427 71.37 41.3527 71.53C40.1927 71.63 38.916 71.6267 37.5227 71.52C37.2623 71.4989 37.0114 71.4128 36.793 71.2695C36.5746 71.1262 36.3957 70.9304 36.2727 70.7L0.0626709 1.25004Z" fill="#09090B"/>
</svg>
