<svg width="404" height="73" viewBox="0 0 404 73" fill="none" xmlns="http://www.w3.org/2000/svg">
<path d="M205.323 36.7937C203.489 40.1203 202.049 43.2637 201.003 46.2237C200.757 46.9153 200.442 47.5819 200.063 48.2137C198.429 50.907 197.366 52.9837 196.873 54.4437C194.903 60.3637 192.463 64.3737 189.563 71.2137C189.468 71.4442 189.306 71.6414 189.097 71.7803C188.889 71.9191 188.644 71.9934 188.393 71.9937H183.093C182.834 71.9943 182.58 71.919 182.362 71.7771C182.144 71.6352 181.971 71.4326 181.863 71.1937L151.043 2.38367C150.968 2.21504 150.936 2.03044 150.951 1.84654C150.965 1.66264 151.025 1.48525 151.126 1.33041C151.226 1.17556 151.363 1.04814 151.525 0.959665C151.687 0.871191 151.868 0.824451 152.053 0.823672H169.403C169.787 0.823202 170.164 0.932125 170.488 1.13763C170.812 1.34313 171.071 1.63665 171.233 1.98367L186.083 33.5737C186.153 33.7218 186.265 33.847 186.404 33.9345C186.543 34.0221 186.703 34.0686 186.868 34.0686C187.032 34.0686 187.193 34.0221 187.332 33.9345C187.471 33.847 187.582 33.7218 187.653 33.5737L202.983 0.763672C203.069 0.575361 203.208 0.415852 203.384 0.304154C203.559 0.192455 203.764 0.133278 203.973 0.133672H208.213C208.479 0.133656 208.739 0.209819 208.964 0.353257C209.189 0.496695 209.369 0.70148 209.483 0.943672L225.433 34.8637C225.49 34.9847 225.58 35.0872 225.692 35.1593C225.805 35.2314 225.936 35.2702 226.07 35.2713C226.203 35.2723 226.335 35.2356 226.448 35.1652C226.562 35.0949 226.654 34.9938 226.713 34.8737L243.073 1.46367C243.147 1.30514 243.265 1.17108 243.414 1.07721C243.563 0.983332 243.736 0.933541 243.913 0.933672H261.283C261.392 0.932788 261.499 0.958024 261.596 1.00732C261.693 1.05661 261.778 1.12857 261.842 1.21731C261.906 1.30605 261.949 1.40905 261.966 1.51791C261.984 1.62677 261.976 1.7384 261.943 1.84367C261.656 2.77701 261.266 3.75034 260.773 4.76367C256.533 13.4437 251.996 23.3037 247.163 34.3437C246.949 34.837 246.466 35.547 245.713 36.4737C245.495 36.7445 245.332 37.0535 245.233 37.3837C244.493 39.8303 243.303 42.6703 241.663 45.9037C240.363 48.477 239.059 51.2803 237.753 54.3137C236.726 56.727 234.056 62.377 229.743 71.2637C229.641 71.4767 229.48 71.6564 229.28 71.7821C229.08 71.9077 228.849 71.9742 228.613 71.9737H222.713C222.51 71.9733 222.312 71.9026 222.154 71.7735C221.996 71.6443 221.886 71.4644 221.843 71.2637C221.623 70.217 221.223 69.0637 220.643 67.8037C214.649 54.737 210.313 45.337 207.633 39.6037C207.079 38.4303 206.513 37.4737 205.933 36.7337C205.896 36.6859 205.848 36.6484 205.793 36.6245C205.737 36.6007 205.677 36.5914 205.616 36.5973C205.555 36.6033 205.497 36.6244 205.445 36.6587C205.394 36.693 205.352 36.7394 205.323 36.7937Z" fill="#09090B"/>
<path d="M264.693 71.0037V2.17367C264.693 2.03115 264.724 1.89032 264.782 1.76045C264.84 1.63058 264.925 1.51461 265.031 1.42015C265.137 1.3257 265.261 1.25491 265.396 1.21242C265.53 1.16994 265.673 1.15674 265.813 1.17367C268.103 1.44367 269.813 0.253672 271.963 0.253672C272.736 0.253672 276.369 0.180339 282.863 0.0336724C294.483 -0.236328 304.133 1.04367 314.943 6.56367C321.569 9.95034 326.576 15.1003 329.963 22.0137C332.113 26.4037 332.373 28.9137 332.803 33.9237C333.483 41.7703 331.286 49.1203 326.213 55.9737C319.763 64.6737 307.513 69.5737 296.723 71.2337C286.063 72.8737 276.703 72.4037 265.513 71.8637C265.292 71.8534 265.083 71.7582 264.93 71.5981C264.778 71.4379 264.692 71.225 264.693 71.0037ZM283.303 16.1337L283.243 55.3737C283.241 55.4722 283.259 55.57 283.296 55.6615C283.332 55.753 283.387 55.8364 283.455 55.907C283.524 55.9775 283.606 56.0339 283.696 56.0728C283.787 56.1117 283.884 56.1324 283.983 56.1337L290.693 56.1437C293.616 56.1496 296.513 55.6766 299.216 54.7515C301.919 53.8265 304.376 52.4675 306.447 50.7524C308.518 49.0372 310.162 46.9994 311.285 44.7553C312.408 42.5112 312.988 40.1049 312.993 37.6737V33.9537C313.002 29.0454 310.666 24.3339 306.499 20.8553C302.332 17.3766 296.675 15.4157 290.773 15.4037L284.063 15.3937C283.964 15.3923 283.866 15.4104 283.775 15.4469C283.683 15.4834 283.6 15.5375 283.529 15.6063C283.459 15.675 283.402 15.7569 283.364 15.8474C283.325 15.9379 283.304 16.0352 283.303 16.1337Z" fill="#09090B"/>
<path d="M383.363 71.2137L379.353 63.5137C379.254 63.3261 379.106 63.1691 378.924 63.0598C378.743 62.9505 378.535 62.8931 378.323 62.8937H349.173C348.961 62.8931 348.753 62.9505 348.571 63.0598C348.389 63.1691 348.241 63.3261 348.143 63.5137L344.093 71.2337C343.994 71.4213 343.846 71.5782 343.664 71.6875C343.483 71.7968 343.275 71.8543 343.063 71.8537H324.853C324.653 71.8543 324.456 71.8031 324.281 71.7052C324.107 71.6072 323.961 71.4659 323.857 71.2948C323.754 71.1237 323.696 70.9287 323.69 70.7288C323.684 70.5288 323.73 70.3307 323.823 70.1537L360.253 0.763672C360.351 0.576094 360.5 0.419131 360.681 0.309828C360.863 0.200525 361.071 0.14306 361.283 0.143673H366.103C366.315 0.14306 366.523 0.200525 366.704 0.309828C366.886 0.419131 367.034 0.576094 367.133 0.763672L403.313 70.1337C403.406 70.3107 403.452 70.5088 403.446 70.7088C403.439 70.9087 403.382 71.1037 403.278 71.2748C403.175 71.4459 403.028 71.5872 402.854 71.6852C402.68 71.7831 402.483 71.8343 402.283 71.8337H384.393C384.181 71.8343 383.973 71.7768 383.791 71.6675C383.609 71.5582 383.461 71.4013 383.363 71.2137ZM355.793 48.7437C355.772 48.8027 355.765 48.8658 355.774 48.9278C355.783 48.9898 355.806 49.0488 355.843 49.0998C355.879 49.1508 355.927 49.1923 355.983 49.2208C356.038 49.2493 356.1 49.264 356.163 49.2637H371.423C371.489 49.2635 371.554 49.2466 371.611 49.2145C371.669 49.1825 371.717 49.1363 371.752 49.0804C371.787 49.0244 371.808 48.9605 371.811 48.8946C371.815 48.8288 371.801 48.7631 371.773 48.7037L364.123 32.4437C364.081 32.3547 364.014 32.2795 363.931 32.2268C363.848 32.1741 363.751 32.1462 363.653 32.1462C363.554 32.1462 363.458 32.1741 363.375 32.2268C363.291 32.2795 363.225 32.3547 363.183 32.4437L357.163 44.9737C356.996 45.3266 356.849 45.6908 356.723 46.0637L355.793 48.7437Z" fill="#09090B"/>
<path d="M79.6027 0.903672L62.7327 33.0237C62.7073 33.0699 62.6701 33.1086 62.625 33.1359C62.5798 33.1631 62.5283 33.178 62.4756 33.1791C62.4228 33.1801 62.3708 33.1672 62.3246 33.1416C62.2785 33.1161 62.2398 33.0789 62.2127 33.0337L44.8927 1.14367C44.8687 1.09835 44.8568 1.04766 44.8581 0.996424C44.8593 0.945191 44.8736 0.895127 44.8997 0.851006C44.9258 0.806886 44.9627 0.770179 45.007 0.744388C45.0513 0.718596 45.1014 0.704579 45.1527 0.703672L79.3327 0.463672C79.3848 0.462858 79.4362 0.475621 79.4818 0.500705C79.5275 0.525789 79.5658 0.56233 79.5931 0.606731C79.6203 0.651131 79.6355 0.701861 79.6372 0.753928C79.6389 0.805994 79.627 0.857602 79.6027 0.903672Z" fill="#09090B"/>
<path d="M0.0626709 1.71367C0.0193647 1.63272 -0.00217132 1.54191 0.000172833 1.45013C0.00251699 1.35836 0.0286608 1.26876 0.0760431 1.19013C0.123425 1.11149 0.190421 1.04651 0.270468 1.00156C0.350514 0.956602 0.440865 0.93321 0.532671 0.933672H19.7327C20.1778 0.93406 20.6141 1.05878 20.9922 1.29376C21.3703 1.52875 21.6752 1.86468 21.8727 2.26367L48.6327 56.8737C48.8318 57.2779 48.9353 57.7232 48.9353 58.1756C48.9353 58.628 48.8318 59.0754 48.6327 59.4837C46.746 63.3703 45.0727 66.517 43.6127 68.9237C42.8927 70.1137 43.1427 71.8337 41.3527 71.9937C40.1927 72.0937 38.916 72.0903 37.5227 71.9837C37.2623 71.9626 37.0114 71.8764 36.793 71.7332C36.5746 71.5899 36.3957 71.3941 36.2727 71.1637L0.0626709 1.71367Z" fill="#09090B"/>
<path d="M115.163 28.9037C120.609 28.9037 124.343 28.9003 126.363 28.8937C128.089 28.8937 128.953 28.317 128.953 27.1637C128.953 22.877 128.963 15.857 128.983 6.10367C128.989 4.49034 129.113 2.98367 129.353 1.58367C129.379 1.42975 129.459 1.29004 129.58 1.18935C129.701 1.08865 129.854 1.0335 130.013 1.03367H146.543C146.813 1.03367 147.073 1.14114 147.264 1.33242C147.455 1.52371 147.563 1.78315 147.563 2.05367V70.8137C147.563 71.0974 147.45 71.3696 147.249 71.5703C147.049 71.7709 146.776 71.8837 146.493 71.8837H130.343C129.966 71.8837 129.605 71.7341 129.339 71.4678C129.072 71.2015 128.923 70.8403 128.923 70.4637V43.6837C128.923 43.4802 128.844 43.2848 128.704 43.1391C128.564 42.9934 128.373 42.9089 128.173 42.9037C127.613 42.8837 123.279 42.877 115.173 42.8837C107.066 42.8837 102.729 42.8903 102.163 42.9037C101.962 42.9089 101.771 42.9934 101.631 43.1391C101.491 43.2848 101.413 43.4802 101.413 43.6837L101.423 70.4637C101.423 70.8403 101.273 71.2015 101.007 71.4678C100.74 71.7341 100.379 71.8837 100.003 71.8837L83.8527 71.8937C83.5689 71.8937 83.2967 71.7809 83.0961 71.5803C82.8954 71.3796 82.7827 71.1075 82.7827 70.8237L82.7627 2.06367C82.7627 1.79315 82.8701 1.53371 83.0614 1.34242C83.2527 1.15114 83.5121 1.04367 83.7827 1.04367L100.313 1.03367C100.471 1.03349 100.624 1.08864 100.745 1.18934C100.866 1.29003 100.947 1.42975 100.973 1.58367C101.213 2.98367 101.336 4.49034 101.343 6.10367C101.369 15.857 101.383 22.877 101.383 27.1637C101.383 28.317 102.246 28.897 103.973 28.9037C105.993 28.9037 109.723 28.9037 115.163 28.9037Z" fill="#09090B"/>
</svg>
